<?xml version="1.0" standalone="no"?>
<svg xmlns="http://www.w3.org/2000/svg" viewBox="0 0 152.649 36" width="152.649" height="36"><g fill="#6a8bff" color="#6a8bff" transform="translate(0 4) scale(0.6363637)"><svg width="44.0" height="44.0" x="0.0" y="0.0" viewBox="0 0 44 44"><path fill="currentColor" fill-rule="evenodd" d="M44 14.667V44H14.667v-7.426c.605.056 1.213.094 1.832.094 11.122 0 20.168-9.047 20.168-20.168 0-.62-.037-1.227-.094-1.833H44zm-29.333 0h18.227c.065.603.106 1.213.106 1.834 0 9.112-7.387 16.498-16.5 16.498-.465 0-.925-.023-1.38-.063l-.453-.045V14.666h18.227zM16.5 0c7.06 0 13.067 4.441 15.422 10.676l.119.324H10.999v21.04C4.596 29.775 0 23.683 0 16.5 0 7.388 7.387 0 16.5 0z"></path></svg></g><path fill="#5e24c3" fill-rule="nonzero" d="M0 18.20L0 18.20Q0 17.55 0.08 17.01Q0.15 16.46 0.30 15.83L0.30 15.83L2.66 15.83L2.66 16.80Q2.66 17.61 2.76 18.23Q2.86 18.86 3.09 19.28Q3.32 19.71 3.70 19.93Q4.08 20.14 4.63 20.14L4.63 20.14Q5.50 20.14 5.95 19.67Q6.41 19.20 6.41 18.28L6.41 18.28Q6.41 17.81 6.35 17.42Q6.28 17.03 6.12 16.64Q5.96 16.25 5.70 15.83Q5.43 15.40 5.00 14.87L5.00 14.87L1.84 11.11Q1.00 10.03 0.54 8.94Q0.08 7.84 0.08 6.60L0.08 6.60Q0.08 5.60 0.39 4.77Q0.70 3.94 1.29 3.33Q1.88 2.73 2.74 2.40Q3.60 2.06 4.69 2.06L4.69 2.06Q6.01 2.06 6.90 2.44Q7.78 2.81 8.31 3.42Q8.84 4.03 9.05 4.79Q9.27 5.54 9.27 6.30L9.27 6.30Q9.27 6.95 9.17 7.49Q9.07 8.04 8.94 8.70L8.94 8.70L6.60 8.70L6.60 7.75Q6.60 6.15 6.14 5.30Q5.68 4.45 4.65 4.45L4.65 4.45Q3.80 4.45 3.38 4.93Q2.95 5.40 2.95 6.20L2.95 6.20Q2.95 6.62 3.02 6.96Q3.08 7.30 3.21 7.59Q3.33 7.88 3.50 8.14Q3.68 8.41 3.90 8.71L3.90 8.71L7.43 12.97Q8.39 14.23 8.91 15.38Q9.42 16.54 9.42 17.82L9.42 17.82Q9.42 18.89 9.09 19.75Q8.75 20.60 8.13 21.20Q7.51 21.80 6.63 22.12Q5.75 22.44 4.65 22.44L4.65 22.44Q3.29 22.44 2.40 22.08Q1.50 21.71 0.97 21.12Q0.43 20.52 0.22 19.76Q0 19.00 0 18.20ZM11.79 22.25L11.79 6.12L14.09 6.12L14.34 7.84L14.34 7.85Q14.70 7.30 15.09 6.93Q15.49 6.56 15.92 6.34Q16.35 6.12 16.80 6.02Q17.25 5.93 17.70 5.93L17.70 5.93Q18.64 5.93 19.30 6.39Q19.96 6.84 20.30 7.76L20.30 7.76Q20.65 7.23 21.04 6.88Q21.43 6.53 21.86 6.32Q22.28 6.11 22.71 6.02Q23.14 5.93 23.59 5.93L23.59 5.93Q25.00 5.93 25.76 6.92Q26.53 7.91 26.53 9.89L26.53 9.89L26.53 22.25L23.57 22.25L23.57 10.00Q23.57 9.47 23.48 9.11Q23.40 8.74 23.24 8.52Q23.07 8.30 22.82 8.20Q22.56 8.10 22.20 8.10L22.20 8.10Q21.79 8.10 21.38 8.40Q20.96 8.70 20.63 9.22L20.63 9.22Q20.64 9.33 20.64 9.43Q20.64 9.54 20.64 9.64L20.64 9.64L20.64 22.25L17.67 22.25L17.67 10.00Q17.67 9.47 17.59 9.11Q17.51 8.74 17.34 8.52Q17.18 8.30 16.92 8.20Q16.66 8.10 16.30 8.10L16.30 8.10Q15.90 8.10 15.49 8.39Q15.08 8.68 14.75 9.20L14.75 9.20L14.75 22.25L11.79 22.25ZM31.83 22.43L31.83 22.43Q31.08 22.43 30.50 22.13Q29.92 21.83 29.52 21.32Q29.12 20.80 28.92 20.09Q28.71 19.38 28.71 18.55L28.71 18.55Q28.71 17.55 28.96 16.78Q29.20 16.01 29.68 15.39Q30.15 14.77 30.86 14.26Q31.56 13.75 32.48 13.29L32.48 13.29Q32.93 13.07 33.49 12.84Q34.04 12.61 34.48 12.45L34.48 12.45L34.48 10.31Q34.48 9.84 34.44 9.44Q34.41 9.04 34.27 8.74Q34.14 8.44 33.87 8.27Q33.60 8.10 33.13 8.10L33.13 8.10Q32.81 8.10 32.51 8.21Q32.21 8.33 31.99 8.61Q31.76 8.89 31.62 9.36Q31.49 9.83 31.49 10.52L31.49 10.52L31.49 11.23L29.23 11.23Q29.12 10.77 29.07 10.39Q29.02 10.01 29.02 9.63L29.02 9.63Q29.02 8.73 29.33 8.04Q29.64 7.35 30.19 6.88Q30.75 6.41 31.52 6.17Q32.30 5.93 33.22 5.93L33.22 5.93Q34.43 5.93 35.23 6.19Q36.02 6.46 36.50 6.98Q36.97 7.51 37.17 8.31Q37.36 9.11 37.36 10.17L37.36 10.17L37.36 22.25L35.16 22.25L34.95 20.87Q34.46 21.56 33.66 22.00Q32.86 22.43 31.83 22.43ZM33.14 20.14L33.14 20.14Q33.52 20.14 33.87 19.95Q34.23 19.76 34.48 19.48L34.48 19.48L34.48 14.43Q34.24 14.52 33.95 14.65Q33.66 14.78 33.32 14.99L33.32 14.99Q33 15.19 32.70 15.47Q32.39 15.75 32.15 16.14Q31.91 16.52 31.76 17.01Q31.62 17.50 31.62 18.09L31.62 18.09Q31.62 19.02 31.98 19.58Q32.34 20.14 33.14 20.14ZM40.43 22.25L40.43 6.12L42.60 6.12L42.86 7.76Q43.35 6.84 43.99 6.39Q44.63 5.93 45.29 5.93L45.29 5.93Q46.57 5.93 47.18 6.71Q47.79 7.50 47.79 9.07L47.79 9.07Q47.79 9.27 47.76 9.54Q47.73 9.82 47.68 10.12Q47.63 10.42 47.55 10.72Q47.47 11.02 47.39 11.26L47.39 11.26L45.33 11.26L45.33 9.76Q45.33 9.27 45.26 8.95Q45.20 8.64 45.09 8.44Q44.99 8.25 44.85 8.17Q44.71 8.10 44.54 8.10L44.54 8.10Q44.19 8.10 43.89 8.33Q43.59 8.55 43.39 8.96L43.39 8.96L43.39 22.25L40.43 22.25ZM50.00 18.23L50.00 8.23L48.75 8.23L48.75 6.12L50.26 6.12L50.86 1.93L52.97 1.93L52.97 6.12L55.55 6.12L55.55 8.23L52.97 8.23L52.97 18.49Q52.97 19.02 53.07 19.34Q53.17 19.66 53.34 19.85Q53.52 20.03 53.75 20.09Q53.99 20.14 54.25 20.14L54.25 20.14Q54.68 20.14 55.01 20.04Q55.35 19.93 55.65 19.75L55.65 19.75L55.65 21.39Q55.39 21.70 55.10 21.90Q54.80 22.10 54.48 22.22Q54.16 22.35 53.84 22.39Q53.51 22.44 53.19 22.44L53.19 22.44Q52.57 22.44 52.00 22.28Q51.42 22.11 50.98 21.65Q50.53 21.19 50.27 20.37Q50.00 19.55 50.00 18.23L50.00 18.23ZM62.89 22.25L62.89 2.24L66.05 2.24Q66.76 2.24 67.53 2.28Q68.30 2.32 69.03 2.53Q69.76 2.74 70.41 3.18Q71.06 3.62 71.55 4.41Q72.05 5.20 72.33 6.40Q72.62 7.61 72.62 9.34L72.62 9.34L72.62 15.15Q72.62 16.89 72.33 18.09Q72.05 19.30 71.55 20.09Q71.06 20.87 70.41 21.31Q69.76 21.75 69.03 21.96Q68.30 22.17 67.53 22.21Q66.76 22.25 66.05 22.25L66.05 22.25L62.89 22.25ZM65.93 20.13L66.70 20.13Q67.52 20.13 68.06 19.92Q68.59 19.71 68.90 19.18Q69.21 18.64 69.33 17.72Q69.45 16.80 69.45 15.40L69.45 15.40L69.45 9.19Q69.45 7.78 69.33 6.86Q69.21 5.94 68.90 5.41Q68.59 4.88 68.06 4.66Q67.52 4.45 66.70 4.45L66.70 4.45L65.93 4.45L65.93 20.13ZM76.72 3.81L76.72 3.81Q75.90 3.81 75.43 3.32Q74.95 2.82 74.95 1.88L74.95 1.88Q74.95 1.35 75.08 0.99Q75.20 0.63 75.43 0.42Q75.66 0.20 75.98 0.10Q76.31 0 76.73 0L76.73 0Q77.61 0 78.07 0.45Q78.53 0.89 78.53 1.88L78.53 1.88Q78.53 2.79 78.06 3.30Q77.60 3.81 76.72 3.81ZM75.19 22.25L75.19 6.12L78.15 6.12L78.15 22.25L75.19 22.25ZM81.25 22.25L81.25 6.12L83.41 6.12L83.67 7.76Q84.16 6.84 84.80 6.39Q85.44 5.93 86.11 5.93L86.11 5.93Q87.39 5.93 88.00 6.71Q88.61 7.50 88.61 9.07L88.61 9.07Q88.61 9.27 88.58 9.54Q88.55 9.82 88.49 10.12Q88.44 10.42 88.37 10.72Q88.29 11.02 88.21 11.26L88.21 11.26L86.14 11.26L86.14 9.76Q86.14 9.27 86.08 8.95Q86.02 8.64 85.91 8.44Q85.80 8.25 85.66 8.17Q85.52 8.10 85.36 8.10L85.36 8.10Q85.01 8.10 84.71 8.33Q84.41 8.55 84.21 8.96L84.21 8.96L84.21 22.25L81.25 22.25ZM92.71 22.43L92.71 22.43Q91.96 22.43 91.38 22.13Q90.80 21.83 90.40 21.32Q90 20.80 89.79 20.09Q89.59 19.38 89.59 18.55L89.59 18.55Q89.59 17.55 89.84 16.78Q90.08 16.01 90.56 15.39Q91.03 14.77 91.73 14.26Q92.44 13.75 93.36 13.29L93.36 13.29Q93.81 13.07 94.37 12.84Q94.92 12.61 95.36 12.45L95.36 12.45L95.36 10.31Q95.36 9.84 95.32 9.44Q95.29 9.04 95.15 8.74Q95.02 8.44 94.75 8.27Q94.48 8.10 94.01 8.10L94.01 8.10Q93.69 8.10 93.39 8.21Q93.09 8.33 92.87 8.61Q92.64 8.89 92.50 9.36Q92.37 9.83 92.37 10.52L92.37 10.52L92.37 11.23L90.11 11.23Q90 10.77 89.95 10.39Q89.89 10.01 89.89 9.63L89.89 9.63Q89.89 8.73 90.21 8.04Q90.52 7.35 91.07 6.88Q91.63 6.41 92.40 6.17Q93.18 5.93 94.10 5.93L94.10 5.93Q95.31 5.93 96.11 6.19Q96.90 6.46 97.38 6.98Q97.85 7.51 98.04 8.31Q98.24 9.11 98.24 10.17L98.24 10.17L98.24 22.25L96.04 22.25L95.82 20.87Q95.34 21.56 94.54 22.00Q93.74 22.43 92.71 22.43ZM94.02 20.14L94.02 20.14Q94.39 20.14 94.75 19.95Q95.11 19.76 95.36 19.48L95.36 19.48L95.36 14.43Q95.12 14.52 94.83 14.65Q94.54 14.78 94.20 14.99L94.20 14.99Q93.88 15.19 93.57 15.47Q93.27 15.75 93.03 16.14Q92.79 16.52 92.64 17.01Q92.50 17.50 92.50 18.09L92.50 18.09Q92.50 19.02 92.86 19.58Q93.22 20.14 94.02 20.14ZM101.31 22.25L101.31 6.12L103.59 6.12L103.86 7.84L103.86 7.85Q104.21 7.30 104.62 6.93Q105.02 6.56 105.46 6.34Q105.89 6.12 106.34 6.02Q106.79 5.93 107.24 5.93L107.24 5.93Q108.66 5.93 109.42 6.92Q110.19 7.91 110.19 9.89L110.19 9.89L110.19 22.25L107.23 22.25L107.23 10.00Q107.23 8.93 106.90 8.51Q106.57 8.10 105.94 8.10L105.94 8.10Q105.49 8.10 105.05 8.39Q104.61 8.68 104.27 9.20L104.27 9.20L104.27 22.25L101.31 22.25ZM114.84 3.81L114.84 3.81Q114.02 3.81 113.55 3.32Q113.07 2.82 113.07 1.88L113.07 1.88Q113.07 1.35 113.20 0.99Q113.32 0.63 113.55 0.42Q113.78 0.20 114.11 0.10Q114.43 0 114.86 0L114.86 0Q115.73 0 116.19 0.45Q116.65 0.89 116.65 1.88L116.65 1.88Q116.65 2.79 116.19 3.30Q115.72 3.81 114.84 3.81ZM113.31 22.25L113.31 6.12L116.27 6.12L116.27 22.25L113.31 22.25Z" transform="translate(36, 6.78)"></path></svg>