<?xml version="1.0" standalone="no"?>
<svg xmlns="http://www.w3.org/2000/svg" viewBox="0 0 216.18400000000003 49.84615384615385" width="216.18400000000003" height="49.84615384615385"><rect fill="none" stroke="#8ba5d2" stroke-width="3" width="213.18400000000003" height="46.84615384615385" x="1.5" y="1.5"></rect><g fill="#125973" color="#125973" transform="translate(12, 12) scale(0.5384616)"><svg width="52.0" height="48.0" x="0.0" y="0.0" viewBox="0 0 52 48"><path fill="currentColor" fill-rule="nonzero" d="M25.7 11.69c-7.36.16-11.83 5.78-11.96 12.72 0 .05.01.1.01.15-.01.18-.01.37.05.57.72 2.75 1.29 5.27 3.12 7.52 2.05 2.51 5.63 3.91 8.81 3.36 3.05-.52 6.38-1.96 8.74-4 2.57-2.22 3.46-5.06 3.64-8.37.37-6.69-6.06-12.09-12.41-11.95zm-.07 20.98c-5.53 1.38-7.5-4.13-8.58-8.22v-.04c.1-5.03 2.45-8.04 7.4-9.23 5.26-1.27 10.27 3.3 10.33 8.46.06 5.29-4.57 7.89-9.15 9.03zM24.18 6.71c-.27-1.51-.15-3.06-.42-4.57-.16-.89.23-1.78 1.16-2.04.81-.22 1.88.27 2.04 1.16.27 1.51.15 3.06.42 4.57.16.89-.23 1.78-1.16 2.04-.81.22-1.88-.27-2.04-1.16zm15.32 5.71c-.72.55-1.86.11-2.28-.6-.5-.85-.12-1.72.6-2.27.98-.74 1.84-1.64 2.71-2.51 1.52-1.52 3.87.83 2.35 2.35-1.07 1.08-2.17 2.11-3.38 3.03zm10.11 9.78c2.11.21 2.13 3.53 0 3.32-2.23-.21-4.42.24-6.65.28-2.14.04-2.14-3.28 0-3.32 2.23-.04 4.42-.5 6.65-.28zM40.1 35.76c.58 1.23 1.82 2.21 2.93 3.12.7.58.6 1.75 0 2.35-.68.68-1.66.58-2.35 0-1.28-1.07-2.72-2.27-3.45-3.8-.39-.81-.23-1.78.6-2.27.73-.43 1.88-.22 2.27.6zM26.69 41.7c.27 1.38.43 2.78.69 4.16.17.88-.24 1.79-1.16 2.04-.82.23-1.87-.27-2.04-1.16-.26-1.38-.42-2.78-.69-4.16-.17-.88.24-1.79 1.16-2.04.82-.23 1.87.27 2.04 1.16zm-14.35-5.56c.76-.51 1.84-.15 2.27.6.47.81.15 1.77-.6 2.27-1.07.72-2.34 1.48-3 2.59-1.09 1.84-3.97.17-2.87-1.68.98-1.65 2.64-2.74 4.2-3.78zM9.02 23.58c0 .97-.76 1.58-1.66 1.66-1.71.17-3.4.52-5.12.42-2.13-.12-2.14-3.45 0-3.32 1.72.1 3.41-.26 5.12-.42.9-.09 1.66.82 1.66 1.66zM8.05 9.92c-1.86-1.06-.19-3.93 1.68-2.86 1.46.83 2.72 2.16 4.31 2.74.85.31 1.42 1.11 1.16 2.04-.22.82-1.19 1.47-2.04 1.16-1.92-.71-3.36-2.08-5.11-3.08z"></path></svg></g><path fill="#125973" fill-rule="nonzero" d="M10.37 14.26L10.37 14.26L10.37 14.62Q10.22 16.42 8.84 17.33Q7.46 18.24 5.40 18.24L5.40 18.24Q2.35 18.24 1.13 17.14L1.13 17.14Q0 16.13 0 14.16L0 14.16L0 13.87L2.83 13.87Q2.83 14.98 3.41 15.38Q3.98 15.79 5.40 15.79L5.40 15.79Q7.32 15.79 7.32 14.40L7.32 14.40Q7.32 13.25 6.65 12.86L6.65 12.86Q6.34 12.67 5.86 12.58L5.86 12.58L3.43 12.17Q0.26 11.66 0.26 8.21L0.26 8.21Q0.26 6.29 1.67 5.22Q3.07 4.15 5.23 4.15L5.23 4.15Q10.15 4.15 10.15 8.40L10.15 8.40L10.15 8.71L7.44 8.71Q7.39 7.58 6.84 7.18Q6.29 6.77 5.29 6.77Q4.30 6.77 3.79 7.16Q3.29 7.56 3.29 8.04L3.29 8.04Q3.29 9.41 4.39 9.60L4.39 9.60L7.30 10.13Q10.37 10.70 10.37 14.26ZM20.40 11.86L20.40 11.86L20.40 10.61Q20.40 8.83 19.88 7.90Q19.37 6.96 17.74 6.96L17.74 6.96Q15.10 6.96 15.10 10.51L15.10 10.51L15.10 11.76Q15.10 15.58 17.74 15.58L17.74 15.58Q19.44 15.58 19.97 14.30L19.97 14.30Q20.40 13.30 20.40 11.86ZM23.52 11.14L23.52 11.14Q23.52 15.58 21.84 17.09L21.84 17.09Q20.42 18.38 17.74 18.38L17.74 18.38Q14.30 18.38 13.10 16.37L13.10 16.37Q11.98 14.52 11.98 11.14L11.98 11.14Q11.98 7.97 13.10 6.17L13.10 6.17Q14.35 4.15 17.65 4.15Q20.95 4.15 22.24 5.92Q23.52 7.68 23.52 11.14ZM29.02 0L29.02 18.05L25.90 18.07L25.90 0L29.02 0ZM41.81 4.25L41.81 18.05L39.72 18.05L38.76 16.39L35.42 18.19Q32.64 18.19 31.68 16.18L31.68 16.18Q31.20 15.19 31.02 14.05Q30.84 12.91 30.84 11.68Q30.84 10.44 30.86 9.85Q30.89 9.26 30.98 8.48Q31.08 7.70 31.26 7.18Q31.44 6.65 31.78 6.08Q32.11 5.52 32.59 5.18L32.59 5.18Q33.67 4.44 35.40 4.44L35.40 4.44L38.69 4.44L41.81 4.25ZM36.31 14.90L38.69 13.68L38.69 7.25L36.31 7.25Q34.99 7.25 34.48 8.26Q33.96 9.26 33.96 11.27Q33.96 13.27 34.45 14.09Q34.94 14.90 36.31 14.90L36.31 14.90ZM52.46 4.39L52.46 4.39L51.60 7.46Q51.24 7.32 50.78 7.32L50.78 7.32Q49.58 7.32 47.83 8.35L47.83 8.35L47.83 18.05L44.71 18.05L44.71 4.34L47.04 4.34L47.76 5.54L51.07 4.18Q51.31 4.15 51.72 4.15Q52.13 4.15 52.46 4.39ZM65.98 18.07L65.98 18.07L63.26 18.05Q61.46 18.05 60.54 16.99Q59.62 15.94 59.62 14.47L59.62 14.47L59.62 0L62.74 0L62.74 6.05L66.46 4.32Q68.59 4.32 69.60 5.47L69.60 5.47Q70.49 6.50 70.70 8.81L70.70 8.81Q70.78 9.77 70.78 11.18L70.78 11.18Q70.78 18.07 65.98 18.07ZM63.53 15.38L63.53 15.38L65.06 15.38Q67.66 15.38 67.66 11.18L67.66 11.18Q67.66 9.05 67.26 8.21Q66.86 7.37 65.54 7.37L65.54 7.37L62.74 8.88L62.74 14.28Q62.74 15.24 63.53 15.38ZM82.99 4.25L82.99 18.05L80.90 18.05L79.94 16.39L76.61 18.19Q73.82 18.19 72.86 16.18L72.86 16.18Q72.38 15.19 72.20 14.05Q72.02 12.91 72.02 11.68Q72.02 10.44 72.05 9.85Q72.07 9.26 72.17 8.48Q72.26 7.70 72.44 7.18Q72.62 6.65 72.96 6.08Q73.30 5.52 73.78 5.18L73.78 5.18Q74.86 4.44 76.58 4.44L76.58 4.44L79.87 4.44L82.99 4.25ZM77.50 14.90L79.87 13.68L79.87 7.25L77.50 7.25Q76.18 7.25 75.66 8.26Q75.14 9.26 75.14 11.27Q75.14 13.27 75.64 14.09Q76.13 14.90 77.50 14.90L77.50 14.90ZM89.38 0L89.38 18.05L86.26 18.07L86.26 0L89.38 0ZM102.17 4.25L102.17 18.05L100.08 18.05L99.12 16.39L95.78 18.19Q93.00 18.19 92.04 16.18L92.04 16.18Q91.56 15.19 91.38 14.05Q91.20 12.91 91.20 11.68Q91.20 10.44 91.22 9.85Q91.25 9.26 91.34 8.48Q91.44 7.70 91.62 7.18Q91.80 6.65 92.14 6.08Q92.47 5.52 92.95 5.18L92.95 5.18Q94.03 4.44 95.76 4.44L95.76 4.44L99.05 4.44L102.17 4.25ZM96.67 14.90L99.05 13.68L99.05 7.25L96.67 7.25Q95.35 7.25 94.84 8.26Q94.32 9.26 94.32 11.27Q94.32 13.27 94.81 14.09Q95.30 14.90 96.67 14.90L96.67 14.90ZM116.18 8.86L116.18 18.05L113.06 18.05L113.06 9.29Q113.06 8.11 112.58 7.68Q112.10 7.25 111.24 7.25L111.24 7.25L108.43 8.42L108.43 18.05L105.31 18.05L105.31 4.34L107.64 4.34L108.36 5.98L112.20 4.20Q113.81 4.20 115.00 5.39Q116.18 6.58 116.18 8.86L116.18 8.86ZM126.31 13.03L126.31 13.03L129.14 13.01Q129.12 13.20 129.10 13.70Q129.07 14.21 129.06 14.39Q129.05 14.57 129 14.95Q128.95 15.34 128.89 15.52Q128.83 15.70 128.74 15.98L128.74 15.98Q128.30 17.23 126.38 17.95L126.38 17.95Q125.16 18.38 123.83 18.38Q122.50 18.38 121.42 17.95Q120.34 17.52 119.71 16.85L119.71 16.85Q118.30 15.36 118.30 11.27Q118.30 7.18 119.71 5.69L119.71 5.69Q120.34 5.02 121.42 4.58Q122.50 4.15 123.82 4.15L123.82 4.15Q126.41 4.15 127.75 5.45Q129.10 6.74 129.10 9.05L129.10 9.05L126.26 9.05Q126.26 7.99 125.74 7.48Q125.21 6.96 123.78 6.96Q122.35 6.96 121.88 7.85Q121.42 8.74 121.42 10.51L121.42 10.51L121.42 11.76Q121.42 14.62 122.52 15.26L122.52 15.26Q123.02 15.58 123.84 15.58Q124.66 15.58 125.17 15.42Q125.69 15.26 125.92 14.88Q126.14 14.50 126.22 14.12Q126.29 13.75 126.31 13.03ZM142.03 11.93L142.03 11.93L134.04 11.93Q134.04 13.80 134.63 14.66Q135.22 15.53 136.99 15.53L136.99 15.53Q138.14 15.53 138.70 14.80Q139.25 14.06 139.25 13.39L139.25 13.39L142.06 13.39Q142.06 15.96 140.68 17.16Q139.30 18.36 137.03 18.36Q134.76 18.36 133.51 17.71L133.51 17.71Q130.94 16.39 130.94 10.70L130.94 10.70Q130.94 7.32 132.41 5.75Q133.87 4.18 136.87 4.18L136.87 4.18Q142.08 4.18 142.08 9.96L142.08 9.96Q142.08 10.58 142.03 11.93ZM134.11 9.79L134.11 9.79L139.25 9.79Q139.25 8.21 138.65 7.49Q138.05 6.77 136.81 6.77Q135.58 6.77 134.84 7.50Q134.11 8.23 134.11 9.79ZM152.18 4.39L152.18 4.39L151.32 7.46Q150.96 7.32 150.50 7.32L150.50 7.32Q149.30 7.32 147.55 8.35L147.55 8.35L147.55 18.05L144.43 18.05L144.43 4.34L146.76 4.34L147.48 5.54L150.79 4.18Q151.03 4.15 151.44 4.15Q151.85 4.15 152.18 4.39Z" transform="translate(52 15.731076923076923)"></path></svg>